<svg xmlns="http://www.w3.org/2000/svg" version="1.1" xmlns:xlink="http://www.w3.org/1999/xlink"
      xmlns:svgjs="http://svgjs.dev/svgjs" width="2000" height="2987" viewBox="0 0 2000 2987">
      <g transform="matrix(1,0,0,1,-3.6607612129602103,-4.817741935484037)"><svg viewBox="0 0 166 248"
                  data-background-color="#ffffff" preserveAspectRatio="xMidYMid meet" height="2987" width="2000"
                  xmlns="http://www.w3.org/2000/svg" xmlns:xlink="http://www.w3.org/1999/xlink">
                  <g id="tight-bounds" transform="matrix(1,0,0,1,0.30384318067569893,0.4000000000000057)"><svg
                              viewBox="0 0 165.39231363864863 247.2" height="247.2" width="165.39231363864863">
                              <g><svg viewBox="0 0 363.48528072837627 543.2753156375084" height="247.2"
                                          width="165.39231363864863">
                                          <g transform="matrix(1,0,0,1,0,296.0753156375083)"><svg
                                                      viewBox="0 0 363.48528072837627 247.2" height="247.2"
                                                      width="363.48528072837627">
                                                      <g id="textblocktransform"><svg
                                                                  viewBox="0 0 363.48528072837627 247.2" height="247.2"
                                                                  width="363.48528072837627" id="textblock">
                                                                  <g><svg viewBox="0 0 363.48528072837627 247.2"
                                                                              height="247.2" width="363.48528072837627">
                                                                              <g transform="matrix(1,0,0,1,0,0)"><svg
                                                                                          width="363.48528072837627"
                                                                                          viewBox="2.1499999999999995 -32.35 48.45 32.95"
                                                                                          height="247.2"
                                                                                          data-palette-color="#b20202">
                                                                                          <path d="M5.6 0.5L5.6 0.5Q5 0.5 4.38 0.3 3.75 0.1 3.35-0.65 2.95-1.4 2.95-2.95L2.95-2.95Q2.95-4.2 3.18-6.13 3.4-8.05 3.75-10.25L3.75-10.25Q4.1-12.5 4.33-15 4.55-17.5 4.55-20.05L4.55-20.05Q4.55-21.05 4.5-22.2 4.45-23.35 4.3-24.45L4.3-24.45Q3.95-24.25 3.63-24.13 3.3-24 3-24L3-24Q2.15-24 2.15-25.65L2.15-25.65Q2.15-27.15 2.83-28.18 3.5-29.2 5.3-30.15L5.3-30.15Q7.05-31.1 9.43-31.73 11.8-32.35 14.25-32.35L14.25-32.35Q19.1-32.35 22.03-29.8 24.95-27.25 24.95-23L24.95-23Q24.95-20.4 23.9-18.2 22.85-16 21.13-14.38 19.4-12.75 17.38-11.88 15.35-11 13.4-11L13.4-11Q11.55-11 10.9-11.83 10.25-12.65 10.25-14.2L10.25-14.2Q10.25-14.95 10.43-15.58 10.6-16.2 11.2-16.2L11.2-16.2Q11.35-16.2 11.65-16.15 11.95-16.1 12.25-16L12.25-16Q12.55-15.95 13.1-15.85 13.65-15.75 14.35-15.75L14.35-15.75Q17.1-15.75 18.82-17.3 20.55-18.85 20.55-21.3L20.55-21.3Q20.55-23.85 18.65-25.3 16.75-26.75 13.75-26.75L13.75-26.75Q12.65-26.75 11.5-26.58 10.35-26.4 9.2-26.1L9.2-26.1Q9.05-22.8 8.5-18.6L8.5-18.6Q8.2-16.1 7.98-13.68 7.75-11.25 7.75-9.25L7.75-9.25Q7.75-7.5 8.08-6.18 8.4-4.85 9.4-3.9L9.4-3.9Q10.1-3.2 10.1-2.4L10.1-2.4Q10.1-1.3 8.85-0.4 7.6 0.5 5.6 0.5ZM36.6 0.6L36.6 0.6Q32.45 0.6 30.65-1.38 28.85-3.35 28.85-6.6L28.85-6.6Q28.85-7.45 29-8.65 29.15-9.85 29.4-11.55L29.4-11.55Q29.8-14 30-15.93 30.2-17.85 30.2-20.15L30.2-20.15Q30.2-22.8 30.05-24.45L30.05-24.45Q29.2-23.95 28.8-23.95L28.8-23.95Q28-23.95 28-25.75L28-25.75Q28-27.15 28.62-28.13 29.25-29.1 30.7-29.95L30.7-29.95Q32.15-30.85 34.37-31.5 36.6-32.15 39.15-32.15L39.15-32.15Q43.3-32.15 45.45-30.25 47.6-28.35 47.6-25.25L47.6-25.25Q47.6-23.25 46.75-21.55 45.9-19.85 44.35-18.55L44.35-18.55Q50.6-17.55 50.6-11.35L50.6-11.35Q50.6-8 48.7-5.25 46.8-2.5 43.55-0.95L43.55-0.95Q40.4 0.6 36.6 0.6ZM38.6-4.95L38.6-4.95Q40.85-4.95 42.67-5.58 44.5-6.2 45.6-7.4 46.7-8.6 46.7-10.2L46.7-10.2Q46.7-12.25 45.25-13.1 43.8-13.95 41.9-13.95L41.9-13.95Q41.1-13.95 39.9-13.8L39.9-13.8Q39.4-13.7 38.75-13.7L38.75-13.7Q37.65-13.7 36.92-14.6 36.2-15.5 36.2-16.85L36.2-16.85Q36.2-17.8 37.05-18.05L37.05-18.05Q43.15-19.65 43.15-23.6L43.15-23.6Q43.15-26.75 38.8-26.75L38.8-26.75Q37.2-26.75 34.85-26.2L34.85-26.2Q34.85-23.75 34.6-21.08 34.35-18.4 33.85-15.5L33.85-15.5Q33.55-13.5 33.37-12.13 33.2-10.75 33.2-9.9L33.2-9.9Q33.2-7.2 34.55-6.08 35.9-4.95 38.6-4.95Z"
                                                                                                opacity="1"
                                                                                                transform="matrix(1,0,0,1,0,0)"
                                                                                                fill="#b20202"
                                                                                                class="wordmark-text-0"
                                                                                                data-fill-palette-color="primary"
                                                                                                id="text-0"></path>
                                                                                    </svg></g>
                                                                        </svg></g>
                                                            </svg></g>
                                                </svg></g>
                                          <g transform="matrix(1,0,0,1,92.06296974543397,0)"><svg
                                                      viewBox="0 0 179.35934123750832 179.35934123750832"
                                                      height="179.35934123750832" width="179.35934123750832">
                                                      <g><svg></svg></g>
                                                      <g id="icon-0"><svg
                                                                  viewBox="0 0 179.35934123750832 179.35934123750832"
                                                                  height="179.35934123750832"
                                                                  width="179.35934123750832">
                                                                  <g>
                                                                        <path d="M0 89.68c0-49.529 40.151-89.68 89.68-89.68 49.529 0 89.68 40.151 89.679 89.68 0 49.529-40.151 89.68-89.679 89.679-49.529 0-89.68-40.151-89.68-89.679zM89.68 157.067c37.217 0 67.387-30.17 67.387-67.387 0-37.217-30.17-67.387-67.387-67.387-37.217 0-67.387 30.17-67.387 67.387 0 37.217 30.17 67.387 67.387 67.387z"
                                                                              data-fill-palette-color="accent"
                                                                              fill="#b20202" stroke="transparent">
                                                                        </path>
                                                                  </g>
                                                                  <g
                                                                        transform="matrix(1,0,0,1,64.91082350801415,71.94771648203977)">
                                                                        <svg viewBox="0 0 49.53769422148001 35.46390827342877"
                                                                              height="35.46390827342877"
                                                                              width="49.53769422148001">
                                                                              <g><svg xmlns="http://www.w3.org/2000/svg"
                                                                                          xmlns:xlink="http://www.w3.org/1999/xlink"
                                                                                          version="1.1" x="0" y="0"
                                                                                          viewBox="1.3 15.1 97.5 69.80000000000001"
                                                                                          enable-background="new 0 0 100 100"
                                                                                          xml:space="preserve"
                                                                                          height="35.46390827342877"
                                                                                          width="49.53769422148001"
                                                                                          class="icon-dxe-0"
                                                                                          data-fill-palette-color="accent"
                                                                                          id="dxe-0">
                                                                                          <path d="M15.8 15.1C11.1 15.1 7.3 18.9 7.3 23.6V66.8C7.3 67.9 6.9 69 6.2 69.8L1.8 75.2C1.5 75.6 1.3 76.1 1.3 76.6V79.1C1.3 82.3 3.9 84.9 7.1 84.9H93C96.2 84.9 98.8 82.3 98.8 79.1V76.6C98.8 76.1 98.6 75.6 98.3 75.2L94 69.9C93.3 69 92.9 68 92.9 66.9V23.6C92.9 18.9 89.1 15.1 84.4 15.1zM59.3 76.5C59.3 78.1 58 79.4 56.4 79.4H43.7C42.1 79.4 40.8 78.1 40.8 76.5V75.9H59.3zM84.3 23.6V67.4H15.8V23.6zM32.1 46.9C32.1 37.5 39.7 29.9 49.1 29.9V46.9H66.1C66.1 56.3 58.5 63.9 49.1 63.9S32.1 56.3 32.1 46.9M66.3 44L68.8 41.5C68.9 42.3 69 43.1 69 43.9L68.9 44zM52.1 37.4L60.4 29.1C60.9 29.4 61.5 29.7 62 30.1L52.1 40zM52.1 34.9V32.3L56.7 27.7C57.4 27.9 58 28.1 58.6 28.4zM54.5 27.2L52.1 29.6V27C52.9 27 53.7 27.1 54.5 27.2M55.9 44L65.8 34.1C66.2 34.6 66.5 35.1 66.8 35.7L58.5 44zM52.1 44V42.7L63.4 31.4C63.6 31.6 63.9 31.8 64.1 32S64.5 32.4 64.7 32.7L53.3 44zM61.1 44L67.6 37.5C67.9 38.1 68.1 38.8 68.3 39.4L63.7 44z"
                                                                                                fill="#b20202"
                                                                                                data-fill-palette-color="accent">
                                                                                          </path>
                                                                                    </svg></g>
                                                                        </svg></g>
                                                            </svg></g>
                                                </svg></g>
                                          <g></g>
                                    </svg></g>
                              <defs></defs>
                        </svg>
                        <rect width="165.39231363864863" height="247.2" fill="none" stroke="none" visibility="hidden">
                        </rect>
                  </g>
            </svg></g>
</svg>